<svg width="3280" height="688" viewBox="0 0 820 172" fill="none" xmlns="http://www.w3.org/2000/svg">
<rect width="820" height="172" rx="5" fill="#FF1434"/>
<path d="M78.3758 91.432C79.9598 91.432 81.2558 91.312 82.2638 91.072C83.3198 90.784 84.1598 90.424 84.7838 89.992C85.4078 89.512 85.8398 88.96 86.0798 88.336C86.3198 87.712 86.4398 87.016 86.4398 86.248C86.4398 84.616 85.6718 83.272 84.1358 82.216C82.5998 81.112 79.9598 79.936 76.2158 78.688C74.5838 78.112 72.9518 77.464 71.3198 76.744C69.6878 75.976 68.2238 75.04 66.9278 73.936C65.6318 72.784 64.5758 71.416 63.7598 69.832C62.9438 68.2 62.5358 66.232 62.5358 63.928C62.5358 61.624 62.9678 59.56 63.8318 57.736C64.6958 55.864 65.9198 54.28 67.5038 52.984C69.0878 51.688 71.0078 50.704 73.2638 50.032C75.5198 49.312 78.0638 48.952 80.8958 48.952C84.2558 48.952 87.1598 49.312 89.6078 50.032C92.0558 50.752 94.0718 51.544 95.6558 52.408L92.4158 61.264C91.0238 60.544 89.4638 59.92 87.7358 59.392C86.0558 58.816 84.0158 58.528 81.6158 58.528C78.9278 58.528 76.9838 58.912 75.7838 59.68C74.6318 60.4 74.0558 61.528 74.0558 63.064C74.0558 63.976 74.2718 64.744 74.7038 65.368C75.1358 65.992 75.7358 66.568 76.5038 67.096C77.3198 67.576 78.2318 68.032 79.2398 68.464C80.2958 68.848 81.4478 69.256 82.6958 69.688C85.2878 70.648 87.5438 71.608 89.4638 72.568C91.3838 73.48 92.9678 74.56 94.2158 75.808C95.5118 77.056 96.4718 78.52 97.0958 80.2C97.7198 81.88 98.0318 83.92 98.0318 86.32C98.0318 90.976 96.3998 94.6 93.1358 97.192C89.8718 99.736 84.9518 101.008 78.3758 101.008C76.1678 101.008 74.1758 100.864 72.3998 100.576C70.6238 100.336 69.0398 100.024 67.6478 99.64C66.3038 99.256 65.1278 98.848 64.1198 98.416C63.1598 97.984 62.3438 97.576 61.6718 97.192L64.8398 88.264C66.3278 89.08 68.1518 89.824 70.3118 90.496C72.5198 91.12 75.2078 91.432 78.3758 91.432ZM121.074 100.72C117.954 100.672 115.41 100.336 113.442 99.712C111.522 99.088 109.986 98.224 108.834 97.12C107.73 95.968 106.962 94.6 106.53 93.016C106.146 91.384 105.954 89.56 105.954 87.544V45.856L116.682 44.128V85.384C116.682 86.344 116.754 87.208 116.898 87.976C117.042 88.744 117.306 89.392 117.69 89.92C118.122 90.448 118.722 90.88 119.49 91.216C120.258 91.552 121.29 91.768 122.586 91.864L121.074 100.72ZM126.935 81.352C126.935 77.992 127.439 75.064 128.447 72.568C129.503 70.024 130.871 67.912 132.551 66.232C134.231 64.552 136.151 63.28 138.311 62.416C140.519 61.552 142.775 61.12 145.079 61.12C150.455 61.12 154.703 62.776 157.823 66.088C160.943 69.352 162.503 74.176 162.503 80.56C162.503 81.184 162.479 81.88 162.431 82.648C162.383 83.368 162.335 84.016 162.287 84.592H137.951C138.191 86.8 139.223 88.552 141.047 89.848C142.871 91.144 145.319 91.792 148.391 91.792C150.359 91.792 152.279 91.624 154.151 91.288C156.071 90.904 157.631 90.448 158.831 89.92L160.271 98.632C159.695 98.92 158.927 99.208 157.967 99.496C157.007 99.784 155.927 100.024 154.727 100.216C153.575 100.456 152.327 100.648 150.983 100.792C149.639 100.936 148.295 101.008 146.951 101.008C143.543 101.008 140.567 100.504 138.023 99.496C135.527 98.488 133.439 97.12 131.759 95.392C130.127 93.616 128.903 91.528 128.087 89.128C127.319 86.728 126.935 84.136 126.935 81.352ZM152.135 77.248C152.087 76.336 151.919 75.448 151.631 74.584C151.391 73.72 150.983 72.952 150.407 72.28C149.879 71.608 149.183 71.056 148.319 70.624C147.503 70.192 146.471 69.976 145.223 69.976C144.023 69.976 142.991 70.192 142.127 70.624C141.263 71.008 140.543 71.536 139.967 72.208C139.391 72.88 138.935 73.672 138.599 74.584C138.311 75.448 138.095 76.336 137.951 77.248H152.135ZM179.926 80.776C179.926 84.088 180.67 86.752 182.158 88.768C183.646 90.784 185.854 91.792 188.782 91.792C189.742 91.792 190.63 91.768 191.446 91.72C192.262 91.624 192.934 91.528 193.462 91.432V71.92C192.79 71.488 191.902 71.128 190.798 70.84C189.742 70.552 188.662 70.408 187.558 70.408C182.47 70.408 179.926 73.864 179.926 80.776ZM204.19 98.776C203.23 99.064 202.126 99.352 200.878 99.64C199.63 99.88 198.31 100.096 196.918 100.288C195.574 100.48 194.182 100.624 192.742 100.72C191.35 100.864 190.006 100.936 188.71 100.936C185.59 100.936 182.806 100.48 180.358 99.568C177.91 98.656 175.846 97.36 174.166 95.68C172.486 93.952 171.19 91.888 170.278 89.488C169.414 87.04 168.982 84.304 168.982 81.28C168.982 78.208 169.366 75.448 170.134 73C170.902 70.504 172.006 68.392 173.446 66.664C174.886 64.936 176.638 63.616 178.702 62.704C180.814 61.792 183.214 61.336 185.902 61.336C187.39 61.336 188.71 61.48 189.862 61.768C191.062 62.056 192.262 62.464 193.462 62.992V45.856L204.19 44.128V98.776ZM223.379 79.84C223.379 85.84 225.803 88.84 230.651 88.84C231.755 88.84 232.787 88.696 233.747 88.408C234.707 88.12 235.523 87.784 236.195 87.4V70.264C235.667 70.168 235.043 70.096 234.323 70.048C233.603 69.952 232.763 69.904 231.803 69.904C228.971 69.904 226.859 70.84 225.467 72.712C224.075 74.584 223.379 76.96 223.379 79.84ZM246.923 95.248C246.923 101.44 245.339 106.024 242.171 109C239.051 112.024 234.203 113.536 227.627 113.536C225.323 113.536 223.019 113.32 220.715 112.888C218.411 112.504 216.275 111.976 214.307 111.304L216.179 102.304C217.859 102.976 219.611 103.504 221.435 103.888C223.307 104.272 225.419 104.464 227.771 104.464C230.843 104.464 233.003 103.792 234.251 102.448C235.547 101.104 236.195 99.376 236.195 97.264V95.896C235.043 96.424 233.843 96.832 232.595 97.12C231.395 97.36 230.075 97.48 228.635 97.48C223.403 97.48 219.395 95.944 216.611 92.872C213.827 89.752 212.435 85.408 212.435 79.84C212.435 77.056 212.867 74.536 213.731 72.28C214.595 69.976 215.843 68.008 217.475 66.376C219.155 64.744 221.195 63.496 223.595 62.632C225.995 61.72 228.707 61.264 231.731 61.264C233.027 61.264 234.347 61.336 235.691 61.48C237.083 61.576 238.451 61.72 239.795 61.912C241.139 62.104 242.411 62.344 243.611 62.632C244.859 62.872 245.963 63.136 246.923 63.424V95.248ZM255.185 81.352C255.185 77.992 255.689 75.064 256.697 72.568C257.753 70.024 259.121 67.912 260.801 66.232C262.481 64.552 264.401 63.28 266.561 62.416C268.769 61.552 271.025 61.12 273.329 61.12C278.705 61.12 282.953 62.776 286.073 66.088C289.193 69.352 290.753 74.176 290.753 80.56C290.753 81.184 290.729 81.88 290.681 82.648C290.633 83.368 290.585 84.016 290.537 84.592H266.201C266.441 86.8 267.473 88.552 269.297 89.848C271.121 91.144 273.569 91.792 276.641 91.792C278.609 91.792 280.529 91.624 282.401 91.288C284.321 90.904 285.881 90.448 287.081 89.92L288.521 98.632C287.945 98.92 287.177 99.208 286.217 99.496C285.257 99.784 284.177 100.024 282.977 100.216C281.825 100.456 280.577 100.648 279.233 100.792C277.889 100.936 276.545 101.008 275.201 101.008C271.793 101.008 268.817 100.504 266.273 99.496C263.777 98.488 261.689 97.12 260.009 95.392C258.377 93.616 257.153 91.528 256.337 89.128C255.569 86.728 255.185 84.136 255.185 81.352ZM280.385 77.248C280.337 76.336 280.169 75.448 279.881 74.584C279.641 73.72 279.233 72.952 278.657 72.28C278.129 71.608 277.433 71.056 276.569 70.624C275.753 70.192 274.721 69.976 273.473 69.976C272.273 69.976 271.241 70.192 270.377 70.624C269.513 71.008 268.793 71.536 268.217 72.208C267.641 72.88 267.185 73.672 266.849 74.584C266.561 75.448 266.345 76.336 266.201 77.248H280.385Z" fill="white"/>
<path d="M64.9152 134.526C65.3992 134.526 65.8245 134.519 66.1912 134.504C66.5725 134.475 66.8879 134.431 67.1372 134.372V130.962C66.9905 130.889 66.7485 130.83 66.4112 130.786C66.0885 130.727 65.6925 130.698 65.2232 130.698C64.9152 130.698 64.5852 130.72 64.2332 130.764C63.8959 130.808 63.5805 130.903 63.2872 131.05C63.0085 131.182 62.7739 131.373 62.5832 131.622C62.3925 131.857 62.2972 132.172 62.2972 132.568C62.2972 133.301 62.5319 133.815 63.0012 134.108C63.4705 134.387 64.1085 134.526 64.9152 134.526ZM64.7392 124.274C65.5605 124.274 66.2499 124.384 66.8072 124.604C67.3792 124.809 67.8339 125.11 68.1712 125.506C68.5232 125.887 68.7725 126.349 68.9192 126.892C69.0659 127.42 69.1392 128.007 69.1392 128.652V135.802C68.9632 135.831 68.7139 135.875 68.3912 135.934C68.0832 135.978 67.7312 136.022 67.3352 136.066C66.9392 136.11 66.5065 136.147 66.0372 136.176C65.5825 136.22 65.1279 136.242 64.6732 136.242C64.0279 136.242 63.4339 136.176 62.8912 136.044C62.3485 135.912 61.8792 135.707 61.4832 135.428C61.0872 135.135 60.7792 134.753 60.5592 134.284C60.3392 133.815 60.2292 133.25 60.2292 132.59C60.2292 131.959 60.3539 131.417 60.6032 130.962C60.8672 130.507 61.2192 130.141 61.6592 129.862C62.0992 129.583 62.6125 129.378 63.1992 129.246C63.7859 129.114 64.4019 129.048 65.0472 129.048C65.2525 129.048 65.4652 129.063 65.6852 129.092C65.9052 129.107 66.1105 129.136 66.3012 129.18C66.5065 129.209 66.6825 129.239 66.8292 129.268C66.9759 129.297 67.0785 129.319 67.1372 129.334V128.762C67.1372 128.425 67.1005 128.095 67.0272 127.772C66.9539 127.435 66.8219 127.141 66.6312 126.892C66.4405 126.628 66.1765 126.423 65.8392 126.276C65.5165 126.115 65.0912 126.034 64.5632 126.034C63.8885 126.034 63.2945 126.085 62.7812 126.188C62.2825 126.276 61.9085 126.371 61.6592 126.474L61.4172 124.78C61.6812 124.663 62.1212 124.553 62.7372 124.45C63.3532 124.333 64.0205 124.274 64.7392 124.274ZM72.5373 124.89C73.0067 124.773 73.63 124.648 74.4073 124.516C75.1847 124.384 76.0793 124.318 77.0913 124.318C78.0007 124.318 78.756 124.45 79.3573 124.714C79.9587 124.963 80.4353 125.323 80.7873 125.792C81.154 126.247 81.4107 126.797 81.5573 127.442C81.704 128.087 81.7773 128.799 81.7773 129.576V136H79.7313V130.016C79.7313 129.312 79.68 128.711 79.5773 128.212C79.4893 127.713 79.3353 127.31 79.1153 127.002C78.8953 126.694 78.602 126.474 78.2353 126.342C77.8687 126.195 77.414 126.122 76.8713 126.122C76.6513 126.122 76.424 126.129 76.1893 126.144C75.9547 126.159 75.7273 126.181 75.5073 126.21C75.302 126.225 75.1113 126.247 74.9353 126.276C74.774 126.305 74.6567 126.327 74.5833 126.342V136H72.5373V124.89ZM100.36 130.28C100.36 131.189 100.228 132.011 99.964 132.744C99.7 133.477 99.326 134.108 98.842 134.636C98.3726 135.164 97.808 135.575 97.148 135.868C96.488 136.147 95.7693 136.286 94.992 136.286C94.2146 136.286 93.496 136.147 92.836 135.868C92.176 135.575 91.604 135.164 91.12 134.636C90.6506 134.108 90.284 133.477 90.02 132.744C89.756 132.011 89.624 131.189 89.624 130.28C89.624 129.385 89.756 128.571 90.02 127.838C90.284 127.09 90.6506 126.452 91.12 125.924C91.604 125.396 92.176 124.993 92.836 124.714C93.496 124.421 94.2146 124.274 94.992 124.274C95.7693 124.274 96.488 124.421 97.148 124.714C97.808 124.993 98.3726 125.396 98.842 125.924C99.326 126.452 99.7 127.09 99.964 127.838C100.228 128.571 100.36 129.385 100.36 130.28ZM98.226 130.28C98.226 128.989 97.9326 127.97 97.346 127.222C96.774 126.459 95.9893 126.078 94.992 126.078C93.9946 126.078 93.2026 126.459 92.616 127.222C92.044 127.97 91.758 128.989 91.758 130.28C91.758 131.571 92.044 132.597 92.616 133.36C93.2026 134.108 93.9946 134.482 94.992 134.482C95.9893 134.482 96.774 134.108 97.346 133.36C97.9326 132.597 98.226 131.571 98.226 130.28ZM111.181 130.302C111.181 128.967 110.851 127.941 110.191 127.222C109.531 126.503 108.651 126.144 107.551 126.144C106.935 126.144 106.451 126.166 106.099 126.21C105.761 126.254 105.49 126.305 105.285 126.364V133.58C105.534 133.785 105.893 133.983 106.363 134.174C106.832 134.365 107.345 134.46 107.903 134.46C108.489 134.46 108.988 134.357 109.399 134.152C109.824 133.932 110.169 133.639 110.433 133.272C110.697 132.891 110.887 132.451 111.005 131.952C111.122 131.439 111.181 130.889 111.181 130.302ZM113.315 130.302C113.315 131.167 113.197 131.967 112.963 132.7C112.743 133.433 112.413 134.064 111.973 134.592C111.533 135.12 110.99 135.531 110.345 135.824C109.714 136.117 108.988 136.264 108.167 136.264C107.507 136.264 106.92 136.176 106.407 136C105.908 135.824 105.534 135.655 105.285 135.494V140.07H103.239V124.912C103.723 124.795 104.324 124.67 105.043 124.538C105.776 124.391 106.619 124.318 107.573 124.318C108.453 124.318 109.245 124.457 109.949 124.736C110.653 125.015 111.254 125.411 111.753 125.924C112.251 126.437 112.633 127.068 112.897 127.816C113.175 128.549 113.315 129.378 113.315 130.302ZM115.556 130.302C115.556 129.29 115.702 128.41 115.996 127.662C116.289 126.899 116.678 126.269 117.162 125.77C117.646 125.271 118.203 124.897 118.834 124.648C119.464 124.399 120.11 124.274 120.77 124.274C122.31 124.274 123.49 124.758 124.312 125.726C125.133 126.679 125.544 128.139 125.544 130.104C125.544 130.192 125.544 130.309 125.544 130.456C125.544 130.588 125.536 130.713 125.522 130.83H117.69C117.778 132.018 118.122 132.92 118.724 133.536C119.325 134.152 120.264 134.46 121.54 134.46C122.258 134.46 122.86 134.401 123.344 134.284C123.842 134.152 124.216 134.027 124.466 133.91L124.752 135.626C124.502 135.758 124.062 135.897 123.432 136.044C122.816 136.191 122.112 136.264 121.32 136.264C120.322 136.264 119.457 136.117 118.724 135.824C118.005 135.516 117.411 135.098 116.942 134.57C116.472 134.042 116.12 133.419 115.886 132.7C115.666 131.967 115.556 131.167 115.556 130.302ZM123.41 129.18C123.424 128.256 123.19 127.501 122.706 126.914C122.236 126.313 121.584 126.012 120.748 126.012C120.278 126.012 119.86 126.107 119.494 126.298C119.142 126.474 118.841 126.709 118.592 127.002C118.342 127.295 118.144 127.633 117.998 128.014C117.866 128.395 117.778 128.784 117.734 129.18H123.41ZM128.483 124.89C128.952 124.773 129.575 124.648 130.353 124.516C131.13 124.384 132.025 124.318 133.037 124.318C133.946 124.318 134.701 124.45 135.303 124.714C135.904 124.963 136.381 125.323 136.733 125.792C137.099 126.247 137.356 126.797 137.503 127.442C137.649 128.087 137.723 128.799 137.723 129.576V136H135.677V130.016C135.677 129.312 135.625 128.711 135.523 128.212C135.435 127.713 135.281 127.31 135.061 127.002C134.841 126.694 134.547 126.474 134.181 126.342C133.814 126.195 133.359 126.122 132.817 126.122C132.597 126.122 132.369 126.129 132.135 126.144C131.9 126.159 131.673 126.181 131.453 126.21C131.247 126.225 131.057 126.247 130.881 126.276C130.719 126.305 130.602 126.327 130.529 126.342V136H128.483V124.89ZM139.927 128.454H145.361V130.368H139.927V128.454ZM150.352 134.526C151.188 134.526 151.804 134.416 152.2 134.196C152.61 133.976 152.816 133.624 152.816 133.14C152.816 132.641 152.618 132.245 152.222 131.952C151.826 131.659 151.173 131.329 150.264 130.962C149.824 130.786 149.398 130.61 148.988 130.434C148.592 130.243 148.247 130.023 147.954 129.774C147.66 129.525 147.426 129.224 147.25 128.872C147.074 128.52 146.986 128.087 146.986 127.574C146.986 126.562 147.36 125.763 148.108 125.176C148.856 124.575 149.875 124.274 151.166 124.274C151.488 124.274 151.811 124.296 152.134 124.34C152.456 124.369 152.757 124.413 153.036 124.472C153.314 124.516 153.556 124.567 153.762 124.626C153.982 124.685 154.15 124.736 154.268 124.78L153.894 126.54C153.674 126.423 153.329 126.305 152.86 126.188C152.39 126.056 151.826 125.99 151.166 125.99C150.594 125.99 150.095 126.107 149.67 126.342C149.244 126.562 149.032 126.914 149.032 127.398C149.032 127.647 149.076 127.867 149.164 128.058C149.266 128.249 149.413 128.425 149.604 128.586C149.809 128.733 150.058 128.872 150.352 129.004C150.645 129.136 150.997 129.275 151.408 129.422C151.95 129.627 152.434 129.833 152.86 130.038C153.285 130.229 153.644 130.456 153.938 130.72C154.246 130.984 154.48 131.307 154.642 131.688C154.803 132.055 154.884 132.509 154.884 133.052C154.884 134.108 154.488 134.907 153.696 135.45C152.918 135.993 151.804 136.264 150.352 136.264C149.34 136.264 148.548 136.176 147.976 136C147.404 135.839 147.015 135.714 146.81 135.626L147.184 133.866C147.418 133.954 147.792 134.086 148.306 134.262C148.819 134.438 149.501 134.526 150.352 134.526ZM167.606 130.28C167.606 131.189 167.474 132.011 167.21 132.744C166.946 133.477 166.572 134.108 166.088 134.636C165.619 135.164 165.054 135.575 164.394 135.868C163.734 136.147 163.015 136.286 162.238 136.286C161.461 136.286 160.742 136.147 160.082 135.868C159.422 135.575 158.85 135.164 158.366 134.636C157.897 134.108 157.53 133.477 157.266 132.744C157.002 132.011 156.87 131.189 156.87 130.28C156.87 129.385 157.002 128.571 157.266 127.838C157.53 127.09 157.897 126.452 158.366 125.924C158.85 125.396 159.422 124.993 160.082 124.714C160.742 124.421 161.461 124.274 162.238 124.274C163.015 124.274 163.734 124.421 164.394 124.714C165.054 124.993 165.619 125.396 166.088 125.924C166.572 126.452 166.946 127.09 167.21 127.838C167.474 128.571 167.606 129.385 167.606 130.28ZM165.472 130.28C165.472 128.989 165.179 127.97 164.592 127.222C164.02 126.459 163.235 126.078 162.238 126.078C161.241 126.078 160.449 126.459 159.862 127.222C159.29 127.97 159.004 128.989 159.004 130.28C159.004 131.571 159.29 132.597 159.862 133.36C160.449 134.108 161.241 134.482 162.238 134.482C163.235 134.482 164.02 134.108 164.592 133.36C165.179 132.597 165.472 131.571 165.472 130.28ZM179.593 135.67C179.123 135.787 178.5 135.912 177.723 136.044C176.96 136.176 176.073 136.242 175.061 136.242C174.181 136.242 173.44 136.117 172.839 135.868C172.237 135.604 171.753 135.237 171.387 134.768C171.02 134.299 170.756 133.749 170.595 133.118C170.433 132.473 170.353 131.761 170.353 130.984V124.56H172.399V130.544C172.399 131.937 172.619 132.935 173.059 133.536C173.499 134.137 174.239 134.438 175.281 134.438C175.501 134.438 175.728 134.431 175.963 134.416C176.197 134.401 176.417 134.387 176.623 134.372C176.828 134.343 177.011 134.321 177.173 134.306C177.349 134.277 177.473 134.247 177.547 134.218V124.56H179.593V135.67ZM187.341 124.318C187.517 124.318 187.715 124.333 187.935 124.362C188.17 124.377 188.397 124.406 188.617 124.45C188.837 124.479 189.035 124.516 189.211 124.56C189.402 124.589 189.541 124.619 189.629 124.648L189.277 126.43C189.116 126.371 188.845 126.305 188.463 126.232C188.097 126.144 187.62 126.1 187.033 126.1C186.652 126.1 186.271 126.144 185.889 126.232C185.523 126.305 185.281 126.357 185.163 126.386V136H183.117V125.044C183.601 124.868 184.203 124.707 184.921 124.56C185.64 124.399 186.447 124.318 187.341 124.318ZM196.576 136.264C195.652 136.264 194.838 136.117 194.134 135.824C193.444 135.531 192.858 135.12 192.374 134.592C191.904 134.064 191.552 133.441 191.318 132.722C191.083 131.989 190.966 131.182 190.966 130.302C190.966 129.422 191.09 128.615 191.34 127.882C191.604 127.149 191.97 126.518 192.44 125.99C192.909 125.447 193.481 125.029 194.156 124.736C194.845 124.428 195.608 124.274 196.444 124.274C196.957 124.274 197.47 124.318 197.984 124.406C198.497 124.494 198.988 124.633 199.458 124.824L198.996 126.562C198.688 126.415 198.328 126.298 197.918 126.21C197.522 126.122 197.096 126.078 196.642 126.078C195.498 126.078 194.618 126.437 194.002 127.156C193.4 127.875 193.1 128.923 193.1 130.302C193.1 130.918 193.166 131.483 193.298 131.996C193.444 132.509 193.664 132.949 193.958 133.316C194.266 133.683 194.654 133.969 195.124 134.174C195.593 134.365 196.165 134.46 196.84 134.46C197.382 134.46 197.874 134.409 198.314 134.306C198.754 134.203 199.098 134.093 199.348 133.976L199.634 135.692C199.516 135.765 199.348 135.839 199.128 135.912C198.908 135.971 198.658 136.022 198.38 136.066C198.101 136.125 197.8 136.169 197.478 136.198C197.17 136.242 196.869 136.264 196.576 136.264ZM201.192 130.302C201.192 129.29 201.339 128.41 201.632 127.662C201.926 126.899 202.314 126.269 202.798 125.77C203.282 125.271 203.84 124.897 204.47 124.648C205.101 124.399 205.746 124.274 206.406 124.274C207.946 124.274 209.127 124.758 209.948 125.726C210.77 126.679 211.18 128.139 211.18 130.104C211.18 130.192 211.18 130.309 211.18 130.456C211.18 130.588 211.173 130.713 211.158 130.83H203.326C203.414 132.018 203.759 132.92 204.36 133.536C204.962 134.152 205.9 134.46 207.176 134.46C207.895 134.46 208.496 134.401 208.98 134.284C209.479 134.152 209.853 134.027 210.102 133.91L210.388 135.626C210.139 135.758 209.699 135.897 209.068 136.044C208.452 136.191 207.748 136.264 206.956 136.264C205.959 136.264 205.094 136.117 204.36 135.824C203.642 135.516 203.048 135.098 202.578 134.57C202.109 134.042 201.757 133.419 201.522 132.7C201.302 131.967 201.192 131.167 201.192 130.302ZM209.046 129.18C209.061 128.256 208.826 127.501 208.342 126.914C207.873 126.313 207.22 126.012 206.384 126.012C205.915 126.012 205.497 126.107 205.13 126.298C204.778 126.474 204.478 126.709 204.228 127.002C203.979 127.295 203.781 127.633 203.634 128.014C203.502 128.395 203.414 128.784 203.37 129.18H209.046ZM222.643 136.22C221.382 136.191 220.487 135.919 219.959 135.406C219.431 134.893 219.167 134.093 219.167 133.008V119.28L221.213 118.928V132.678C221.213 133.015 221.243 133.294 221.301 133.514C221.36 133.734 221.455 133.91 221.587 134.042C221.719 134.174 221.895 134.277 222.115 134.35C222.335 134.409 222.607 134.46 222.929 134.504L222.643 136.22ZM224.589 130.302C224.589 129.29 224.735 128.41 225.029 127.662C225.322 126.899 225.711 126.269 226.195 125.77C226.679 125.271 227.236 124.897 227.867 124.648C228.497 124.399 229.143 124.274 229.803 124.274C231.343 124.274 232.523 124.758 233.345 125.726C234.166 126.679 234.577 128.139 234.577 130.104C234.577 130.192 234.577 130.309 234.577 130.456C234.577 130.588 234.569 130.713 234.555 130.83H226.723C226.811 132.018 227.155 132.92 227.757 133.536C228.358 134.152 229.297 134.46 230.573 134.46C231.291 134.46 231.893 134.401 232.377 134.284C232.875 134.152 233.249 134.027 233.499 133.91L233.785 135.626C233.535 135.758 233.095 135.897 232.465 136.044C231.849 136.191 231.145 136.264 230.353 136.264C229.355 136.264 228.49 136.117 227.757 135.824C227.038 135.516 226.444 135.098 225.975 134.57C225.505 134.042 225.153 133.419 224.919 132.7C224.699 131.967 224.589 131.167 224.589 130.302ZM232.443 129.18C232.457 128.256 232.223 127.501 231.739 126.914C231.269 126.313 230.617 126.012 229.781 126.012C229.311 126.012 228.893 126.107 228.527 126.298C228.175 126.474 227.874 126.709 227.625 127.002C227.375 127.295 227.177 127.633 227.031 128.014C226.899 128.395 226.811 128.784 226.767 129.18H232.443ZM246.448 124.56C245.876 126.701 245.201 128.755 244.424 130.72C243.661 132.685 242.921 134.445 242.202 136H240.354C239.635 134.445 238.887 132.685 238.11 130.72C237.347 128.755 236.68 126.701 236.108 124.56H238.308C238.484 125.279 238.689 126.049 238.924 126.87C239.173 127.677 239.43 128.483 239.694 129.29C239.973 130.082 240.251 130.852 240.53 131.6C240.809 132.348 241.073 133.015 241.322 133.602C241.571 133.015 241.835 132.348 242.114 131.6C242.393 130.852 242.664 130.082 242.928 129.29C243.207 128.483 243.463 127.677 243.698 126.87C243.947 126.049 244.16 125.279 244.336 124.56H246.448ZM247.62 130.302C247.62 129.29 247.767 128.41 248.06 127.662C248.353 126.899 248.742 126.269 249.226 125.77C249.71 125.271 250.267 124.897 250.898 124.648C251.529 124.399 252.174 124.274 252.834 124.274C254.374 124.274 255.555 124.758 256.376 125.726C257.197 126.679 257.608 128.139 257.608 130.104C257.608 130.192 257.608 130.309 257.608 130.456C257.608 130.588 257.601 130.713 257.586 130.83H249.754C249.842 132.018 250.187 132.92 250.788 133.536C251.389 134.152 252.328 134.46 253.604 134.46C254.323 134.46 254.924 134.401 255.408 134.284C255.907 134.152 256.281 134.027 256.53 133.91L256.816 135.626C256.567 135.758 256.127 135.897 255.496 136.044C254.88 136.191 254.176 136.264 253.384 136.264C252.387 136.264 251.521 136.117 250.788 135.824C250.069 135.516 249.475 135.098 249.006 134.57C248.537 134.042 248.185 133.419 247.95 132.7C247.73 131.967 247.62 131.167 247.62 130.302ZM255.474 129.18C255.489 128.256 255.254 127.501 254.77 126.914C254.301 126.313 253.648 126.012 252.812 126.012C252.343 126.012 251.925 126.107 251.558 126.298C251.206 126.474 250.905 126.709 250.656 127.002C250.407 127.295 250.209 127.633 250.062 128.014C249.93 128.395 249.842 128.784 249.798 129.18H255.474ZM263.979 136.22C262.718 136.191 261.823 135.919 261.295 135.406C260.767 134.893 260.503 134.093 260.503 133.008V119.28L262.549 118.928V132.678C262.549 133.015 262.578 133.294 262.637 133.514C262.696 133.734 262.791 133.91 262.923 134.042C263.055 134.174 263.231 134.277 263.451 134.35C263.671 134.409 263.942 134.46 264.265 134.504L263.979 136.22ZM271.017 130.302C271.017 129.29 271.163 128.41 271.457 127.662C271.75 126.899 272.139 126.269 272.623 125.77C273.107 125.271 273.664 124.897 274.295 124.648C274.925 124.399 275.571 124.274 276.231 124.274C277.771 124.274 278.951 124.758 279.773 125.726C280.594 126.679 281.005 128.139 281.005 130.104C281.005 130.192 281.005 130.309 281.005 130.456C281.005 130.588 280.997 130.713 280.983 130.83H273.151C273.239 132.018 273.583 132.92 274.185 133.536C274.786 134.152 275.725 134.46 277.001 134.46C277.719 134.46 278.321 134.401 278.805 134.284C279.303 134.152 279.677 134.027 279.927 133.91L280.213 135.626C279.963 135.758 279.523 135.897 278.893 136.044C278.277 136.191 277.573 136.264 276.781 136.264C275.783 136.264 274.918 136.117 274.185 135.824C273.466 135.516 272.872 135.098 272.403 134.57C271.933 134.042 271.581 133.419 271.347 132.7C271.127 131.967 271.017 131.167 271.017 130.302ZM278.871 129.18C278.885 128.256 278.651 127.501 278.167 126.914C277.697 126.313 277.045 126.012 276.209 126.012C275.739 126.012 275.321 126.107 274.955 126.298C274.603 126.474 274.302 126.709 274.053 127.002C273.803 127.295 273.605 127.633 273.459 128.014C273.327 128.395 273.239 128.784 273.195 129.18H278.871ZM291.336 126.98C291.086 126.775 290.727 126.577 290.258 126.386C289.788 126.195 289.275 126.1 288.718 126.1C288.131 126.1 287.625 126.21 287.2 126.43C286.789 126.635 286.452 126.929 286.188 127.31C285.924 127.677 285.733 128.117 285.616 128.63C285.498 129.143 285.44 129.693 285.44 130.28C285.44 131.615 285.77 132.649 286.43 133.382C287.09 134.101 287.97 134.46 289.07 134.46C289.627 134.46 290.089 134.438 290.456 134.394C290.837 134.335 291.13 134.277 291.336 134.218V126.98ZM291.336 119.28L293.382 118.928V135.67C292.912 135.802 292.311 135.934 291.578 136.066C290.844 136.198 290.001 136.264 289.048 136.264C288.168 136.264 287.376 136.125 286.672 135.846C285.968 135.567 285.366 135.171 284.868 134.658C284.369 134.145 283.98 133.521 283.702 132.788C283.438 132.04 283.306 131.204 283.306 130.28C283.306 129.4 283.416 128.593 283.636 127.86C283.87 127.127 284.208 126.496 284.648 125.968C285.088 125.44 285.623 125.029 286.254 124.736C286.899 124.443 287.632 124.296 288.454 124.296C289.114 124.296 289.693 124.384 290.192 124.56C290.705 124.736 291.086 124.905 291.336 125.066V119.28ZM298.945 136H296.899V124.56H298.945V136ZM297.911 122.492C297.544 122.492 297.229 122.375 296.965 122.14C296.715 121.891 296.591 121.561 296.591 121.15C296.591 120.739 296.715 120.417 296.965 120.182C297.229 119.933 297.544 119.808 297.911 119.808C298.277 119.808 298.585 119.933 298.835 120.182C299.099 120.417 299.231 120.739 299.231 121.15C299.231 121.561 299.099 121.891 298.835 122.14C298.585 122.375 298.277 122.492 297.911 122.492ZM304.377 124.56H308.711V126.276H304.377V131.556C304.377 132.128 304.421 132.605 304.509 132.986C304.597 133.353 304.729 133.646 304.905 133.866C305.081 134.071 305.301 134.218 305.565 134.306C305.829 134.394 306.137 134.438 306.489 134.438C307.105 134.438 307.596 134.372 307.963 134.24C308.344 134.093 308.608 133.991 308.755 133.932L309.151 135.626C308.946 135.729 308.586 135.853 308.073 136C307.56 136.161 306.973 136.242 306.313 136.242C305.536 136.242 304.89 136.147 304.377 135.956C303.878 135.751 303.475 135.45 303.167 135.054C302.859 134.658 302.639 134.174 302.507 133.602C302.39 133.015 302.331 132.341 302.331 131.578V121.37L304.377 121.018V124.56ZM321.112 130.28C321.112 131.189 320.98 132.011 320.716 132.744C320.452 133.477 320.078 134.108 319.594 134.636C319.125 135.164 318.56 135.575 317.9 135.868C317.24 136.147 316.521 136.286 315.744 136.286C314.967 136.286 314.248 136.147 313.588 135.868C312.928 135.575 312.356 135.164 311.872 134.636C311.403 134.108 311.036 133.477 310.772 132.744C310.508 132.011 310.376 131.189 310.376 130.28C310.376 129.385 310.508 128.571 310.772 127.838C311.036 127.09 311.403 126.452 311.872 125.924C312.356 125.396 312.928 124.993 313.588 124.714C314.248 124.421 314.967 124.274 315.744 124.274C316.521 124.274 317.24 124.421 317.9 124.714C318.56 124.993 319.125 125.396 319.594 125.924C320.078 126.452 320.452 127.09 320.716 127.838C320.98 128.571 321.112 129.385 321.112 130.28ZM318.978 130.28C318.978 128.989 318.685 127.97 318.098 127.222C317.526 126.459 316.741 126.078 315.744 126.078C314.747 126.078 313.955 126.459 313.368 127.222C312.796 127.97 312.51 128.989 312.51 130.28C312.51 131.571 312.796 132.597 313.368 133.36C313.955 134.108 314.747 134.482 315.744 134.482C316.741 134.482 317.526 134.108 318.098 133.36C318.685 132.597 318.978 131.571 318.978 130.28ZM328.214 124.318C328.39 124.318 328.588 124.333 328.808 124.362C329.043 124.377 329.27 124.406 329.49 124.45C329.71 124.479 329.908 124.516 330.084 124.56C330.275 124.589 330.414 124.619 330.502 124.648L330.15 126.43C329.989 126.371 329.718 126.305 329.336 126.232C328.97 126.144 328.493 126.1 327.906 126.1C327.525 126.1 327.144 126.144 326.762 126.232C326.396 126.305 326.154 126.357 326.036 126.386V136H323.99V125.044C324.474 124.868 325.076 124.707 325.794 124.56C326.513 124.399 327.32 124.318 328.214 124.318Z" fill="white"/>
</svg>
