<svg width="820" height="172" viewBox="0 0 820 172" fill="none" xmlns="http://www.w3.org/2000/svg">
<rect width="820" height="172" rx="5" fill="#FF1434"/>
<path d="M90.3758 104.432C91.9598 104.432 93.2558 104.312 94.2638 104.072C95.3198 103.784 96.1598 103.424 96.7838 102.992C97.4078 102.512 97.8398 101.96 98.0798 101.336C98.3198 100.712 98.4398 100.016 98.4398 99.248C98.4398 97.616 97.6718 96.272 96.1358 95.216C94.5998 94.112 91.9598 92.936 88.2158 91.688C86.5838 91.112 84.9518 90.464 83.3198 89.744C81.6878 88.976 80.2238 88.04 78.9278 86.936C77.6318 85.784 76.5758 84.416 75.7598 82.832C74.9438 81.2 74.5358 79.232 74.5358 76.928C74.5358 74.624 74.9678 72.56 75.8318 70.736C76.6958 68.864 77.9198 67.28 79.5038 65.984C81.0878 64.688 83.0078 63.704 85.2638 63.032C87.5198 62.312 90.0638 61.952 92.8958 61.952C96.2558 61.952 99.1598 62.312 101.608 63.032C104.056 63.752 106.072 64.544 107.656 65.408L104.416 74.264C103.024 73.544 101.464 72.92 99.7358 72.392C98.0558 71.816 96.0158 71.528 93.6158 71.528C90.9278 71.528 88.9838 71.912 87.7838 72.68C86.6318 73.4 86.0558 74.528 86.0558 76.064C86.0558 76.976 86.2718 77.744 86.7038 78.368C87.1358 78.992 87.7358 79.568 88.5038 80.096C89.3198 80.576 90.2318 81.032 91.2398 81.464C92.2958 81.848 93.4478 82.256 94.6958 82.688C97.2878 83.648 99.5438 84.608 101.464 85.568C103.384 86.48 104.968 87.56 106.216 88.808C107.512 90.056 108.472 91.52 109.096 93.2C109.72 94.88 110.032 96.92 110.032 99.32C110.032 103.976 108.4 107.6 105.136 110.192C101.872 112.736 96.9518 114.008 90.3758 114.008C88.1678 114.008 86.1758 113.864 84.3998 113.576C82.6238 113.336 81.0398 113.024 79.6478 112.64C78.3038 112.256 77.1278 111.848 76.1198 111.416C75.1598 110.984 74.3438 110.576 73.6718 110.192L76.8398 101.264C78.3278 102.08 80.1518 102.824 82.3118 103.496C84.5198 104.12 87.2078 104.432 90.3758 104.432ZM133.074 113.72C129.954 113.672 127.41 113.336 125.442 112.712C123.522 112.088 121.986 111.224 120.834 110.12C119.73 108.968 118.962 107.6 118.53 106.016C118.146 104.384 117.954 102.56 117.954 100.544V58.856L128.682 57.128V98.384C128.682 99.344 128.754 100.208 128.898 100.976C129.042 101.744 129.306 102.392 129.69 102.92C130.122 103.448 130.722 103.88 131.49 104.216C132.258 104.552 133.29 104.768 134.586 104.864L133.074 113.72ZM138.935 94.352C138.935 90.992 139.439 88.064 140.447 85.568C141.503 83.024 142.871 80.912 144.551 79.232C146.231 77.552 148.151 76.28 150.311 75.416C152.519 74.552 154.775 74.12 157.079 74.12C162.455 74.12 166.703 75.776 169.823 79.088C172.943 82.352 174.503 87.176 174.503 93.56C174.503 94.184 174.479 94.88 174.431 95.648C174.383 96.368 174.335 97.016 174.287 97.592H149.951C150.191 99.8 151.223 101.552 153.047 102.848C154.871 104.144 157.319 104.792 160.391 104.792C162.359 104.792 164.279 104.624 166.151 104.288C168.071 103.904 169.631 103.448 170.831 102.92L172.271 111.632C171.695 111.92 170.927 112.208 169.967 112.496C169.007 112.784 167.927 113.024 166.727 113.216C165.575 113.456 164.327 113.648 162.983 113.792C161.639 113.936 160.295 114.008 158.951 114.008C155.543 114.008 152.567 113.504 150.023 112.496C147.527 111.488 145.439 110.12 143.759 108.392C142.127 106.616 140.903 104.528 140.087 102.128C139.319 99.728 138.935 97.136 138.935 94.352ZM164.135 90.248C164.087 89.336 163.919 88.448 163.631 87.584C163.391 86.72 162.983 85.952 162.407 85.28C161.879 84.608 161.183 84.056 160.319 83.624C159.503 83.192 158.471 82.976 157.223 82.976C156.023 82.976 154.991 83.192 154.127 83.624C153.263 84.008 152.543 84.536 151.967 85.208C151.391 85.88 150.935 86.672 150.599 87.584C150.311 88.448 150.095 89.336 149.951 90.248H164.135ZM191.926 93.776C191.926 97.088 192.67 99.752 194.158 101.768C195.646 103.784 197.854 104.792 200.782 104.792C201.742 104.792 202.63 104.768 203.446 104.72C204.262 104.624 204.934 104.528 205.462 104.432V84.92C204.79 84.488 203.902 84.128 202.798 83.84C201.742 83.552 200.662 83.408 199.558 83.408C194.47 83.408 191.926 86.864 191.926 93.776ZM216.19 111.776C215.23 112.064 214.126 112.352 212.878 112.64C211.63 112.88 210.31 113.096 208.918 113.288C207.574 113.48 206.182 113.624 204.742 113.72C203.35 113.864 202.006 113.936 200.71 113.936C197.59 113.936 194.806 113.48 192.358 112.568C189.91 111.656 187.846 110.36 186.166 108.68C184.486 106.952 183.19 104.888 182.278 102.488C181.414 100.04 180.982 97.304 180.982 94.28C180.982 91.208 181.366 88.448 182.134 86C182.902 83.504 184.006 81.392 185.446 79.664C186.886 77.936 188.638 76.616 190.702 75.704C192.814 74.792 195.214 74.336 197.902 74.336C199.39 74.336 200.71 74.48 201.862 74.768C203.062 75.056 204.262 75.464 205.462 75.992V58.856L216.19 57.128V111.776ZM235.379 92.84C235.379 98.84 237.803 101.84 242.651 101.84C243.755 101.84 244.787 101.696 245.747 101.408C246.707 101.12 247.523 100.784 248.195 100.4V83.264C247.667 83.168 247.043 83.096 246.323 83.048C245.603 82.952 244.763 82.904 243.803 82.904C240.971 82.904 238.859 83.84 237.467 85.712C236.075 87.584 235.379 89.96 235.379 92.84ZM258.923 108.248C258.923 114.44 257.339 119.024 254.171 122C251.051 125.024 246.203 126.536 239.627 126.536C237.323 126.536 235.019 126.32 232.715 125.888C230.411 125.504 228.275 124.976 226.307 124.304L228.179 115.304C229.859 115.976 231.611 116.504 233.435 116.888C235.307 117.272 237.419 117.464 239.771 117.464C242.843 117.464 245.003 116.792 246.251 115.448C247.547 114.104 248.195 112.376 248.195 110.264V108.896C247.043 109.424 245.843 109.832 244.595 110.12C243.395 110.36 242.075 110.48 240.635 110.48C235.403 110.48 231.395 108.944 228.611 105.872C225.827 102.752 224.435 98.408 224.435 92.84C224.435 90.056 224.867 87.536 225.731 85.28C226.595 82.976 227.843 81.008 229.475 79.376C231.155 77.744 233.195 76.496 235.595 75.632C237.995 74.72 240.707 74.264 243.731 74.264C245.027 74.264 246.347 74.336 247.691 74.48C249.083 74.576 250.451 74.72 251.795 74.912C253.139 75.104 254.411 75.344 255.611 75.632C256.859 75.872 257.963 76.136 258.923 76.424V108.248ZM267.185 94.352C267.185 90.992 267.689 88.064 268.697 85.568C269.753 83.024 271.121 80.912 272.801 79.232C274.481 77.552 276.401 76.28 278.561 75.416C280.769 74.552 283.025 74.12 285.329 74.12C290.705 74.12 294.953 75.776 298.073 79.088C301.193 82.352 302.753 87.176 302.753 93.56C302.753 94.184 302.729 94.88 302.681 95.648C302.633 96.368 302.585 97.016 302.537 97.592H278.201C278.441 99.8 279.473 101.552 281.297 102.848C283.121 104.144 285.569 104.792 288.641 104.792C290.609 104.792 292.529 104.624 294.401 104.288C296.321 103.904 297.881 103.448 299.081 102.92L300.521 111.632C299.945 111.92 299.177 112.208 298.217 112.496C297.257 112.784 296.177 113.024 294.977 113.216C293.825 113.456 292.577 113.648 291.233 113.792C289.889 113.936 288.545 114.008 287.201 114.008C283.793 114.008 280.817 113.504 278.273 112.496C275.777 111.488 273.689 110.12 272.009 108.392C270.377 106.616 269.153 104.528 268.337 102.128C267.569 99.728 267.185 97.136 267.185 94.352ZM292.385 90.248C292.337 89.336 292.169 88.448 291.881 87.584C291.641 86.72 291.233 85.952 290.657 85.28C290.129 84.608 289.433 84.056 288.569 83.624C287.753 83.192 286.721 82.976 285.473 82.976C284.273 82.976 283.241 83.192 282.377 83.624C281.513 84.008 280.793 84.536 280.217 85.208C279.641 85.88 279.185 86.672 278.849 87.584C278.561 88.448 278.345 89.336 278.201 90.248H292.385Z" fill="white"/>
</svg>
