<svg width="32" height="32" viewBox="0 0 32 32" fill="none" xmlns="http://www.w3.org/2000/svg">
<rect width="32" height="32" rx="12" fill="white"/>
<path d="M11.75 6.89645L7 11.6464C6.80473 11.8417 6.80473 12.1583 7 12.3536L9.64644 15C9.8417 15.1953 10.1583 15.1953 10.3535 15L17.75 7.60355C18.065 7.28857 17.8419 6.75 17.3964 6.75L12.1035 6.75C11.9709 6.75 11.8438 6.80268 11.75 6.89645ZM23.75 25.1036L23.9268 24.9268L23.75 25.1036C23.8438 25.1973 23.9709 25.25 24.1036 25.25L25.75 25.25C26.0261 25.25 26.25 25.0261 26.25 24.75L26.25 23.1036C26.25 22.9709 26.1973 22.8438 26.1036 22.75L15.3535 12C15.1583 11.8047 14.8417 11.8047 14.6464 12L13 13.6464C12.8047 13.8417 12.8047 14.1583 13 14.3536L23.75 25.1036Z" fill="#FF1434" stroke="#E0001F" stroke-width="0.5"/>
</svg>
